<?xml version="1.0" encoding="utf-8"?>
<!-- Generator: Adobe Illustrator 22.0.1, SVG Export Plug-In . SVG Version: 6.00 Build 0)  -->
<svg version="1.1" id="Layer_1" xmlns="http://www.w3.org/2000/svg" xmlns:xlink="http://www.w3.org/1999/xlink" x="0px" y="0px"
	 viewBox="0 0 1566.1 334.9" style="enable-background:new 0 0 1566.1 334.9;" xml:space="preserve">
<style type="text/css">
	.st0{fill:#F1F2F2;stroke:#F1F2F2;stroke-width:16;stroke-miterlimit:10;}
	.st1{fill:none;}
	.st2{fill:#F1F2F2;stroke:#F1F2F2;stroke-miterlimit:10;}
	.st3{font-family:'MyriadPro-Regular';}
	.st4{font-size:200px;}
</style>
<path class="st0" d="M261.8,171.6c-3.4,0-6.4,2.3-7.2,5.6L228.5,277L178.8,20.1c-0.7-3.5-3.7-6-7.3-6.1h0c-3.5,0-6.6,2.5-7.3,6
	l-42.3,206.1L87.3,122.9c-1-3.1-3.9-5.1-7.1-5.1c-3.2,0-6.1,2.1-7.1,5.2l-15.8,48.7H26.1c0.1,5,0.1,10,0,15h36.3
	c3.2,0,6.1-2.1,7.1-5.2L80,149l36.2,108.7c1.1,3.2,4.2,5.3,7.6,5.1c3.4-0.2,6.2-2.7,6.9-6l40.4-197.7l48.8,253.7
	c0.7,3.4,3.6,6,7.1,6.1c0.1,0,0.2,0,0.2,0c3.4,0,6.4-2.3,7.2-5.6l33-126.8H301v-15H261.8z"/>
<rect x="336.1" y="86.1" class="st1" width="1880.9" height="317.6"/>
<text transform="matrix(1 0 0 1 336.0839 228.091)" class="st2 st3 st4">NordicMedTek</text>
</svg>
